<?xml version="1.0" encoding="utf-8"?>
<!-- Generator: Adobe Illustrator 21.0.0, SVG Export Plug-In . SVG Version: 6.00 Build 0)  -->
<svg version="1.1" id="圖層_1" xmlns="http://www.w3.org/2000/svg" xmlns:xlink="http://www.w3.org/1999/xlink" x="0px" y="0px"
	 viewBox="0 0 452.4 210.8" style="enable-background:new 0 0 452.4 210.8;" xml:space="preserve">
<style type="text/css">
	.st0{fill:#F0EBD8;}
</style>
<title>logo</title>
<path class="st0" d="M0.3,72.8V10.1h27.4v62.8H0.3z M9.8,19.6v43.8h8.4V19.6H9.8z M94,84H83L67.3,58.6v36.1h-9.5V58.8L42.7,84H31.5
	l23-38.3H32.7v-9.5h25.1V22.7H37.9v-9.5h19.9v-11h9.5v11h21.1v9.5H67.3v13.6h26.2v9.5H70.5L94,84z"/>
<path class="st0" d="M143.3,41.4h9.5l-5.6,12.1l3.7,6.6h-9.6l-2.8-4.4v40.1h-8.4l-0.2-31.7l-3.5,9.1h-9.2L136,24h-16.9v-8.5h10V0
	h8.5v15.5h10.8L139,40.1l2.8,4.6L143.3,41.4z M214.3,23.5h-25v6.8H212v65.3h-8.2V75.5h-14.4V92h-8.6V75.5h-14.4v20.2h-8.2V30.4h22.6
	v-6.8h-24.3v-8.8h24.4V0.2h8.6v14.5h25L214.3,23.5z M180.8,38.7h-14.4v9.5h14.4V38.7z M166.4,66.7h14.4V57h-14.4V66.7z M203.9,38.7
	h-14.5v9.5h14.5V38.7z M189.4,66.7h14.5V57h-14.5V66.7z M211.5,11.4h-10.2l-5.2-8.7h10.1L211.5,11.4z"/>
<path class="st0" d="M242.7,186v-37.9H236l12.6-31.2h25.1l-7.2,18.6h12.6V186H242.7z M238.7,210.3l2-20.3h7.9l-2,20.3H238.7z
	 M261.4,125.4h-7l-4.3,10.1h7.3L261.4,125.4z M256.7,144.3h-5.2v12.4h5.2V144.3z M251.5,164.9v12.4h5.2v-12.4H251.5z M252.3,190h7.9
	l0.2,17h-7.9L252.3,190z M271.6,190l0.8,14.5h-7.9l-0.8-14.5H271.6z M270.1,156.6v-12.4h-5v12.4L270.1,156.6z M265.1,177.3h5v-12.4
	h-5V177.3z M275.3,190h7.9l1.3,11.3h-7.9L275.3,190z M335.2,178.6v9h-19.8v23.1h-9v-23.1h-19.8v-9h19.8v-14.4h-15.6v-9h15.6v-14.3
	h-18.8v-9h27l4.4-15h9.8l-4.4,15h9.8v9h-18.8v14.3H331v9h-15.6v14.4H335.2z M305.3,128.2h-10l-3.7-11.3h10L305.3,128.2z"/>
<path class="st0" d="M405.9,166.7h-14.5l14.8,31h-10.6l-10.4-22l-11,32.3h-10.2l14.3-41.3h-16v-9.6h17.5v-18.3h-8l-3.6,12.1h-9.8
	l9.7-33.7h10.1l-3.6,12.1h29.2v9.5h-14.4v18.2h16.7V166.7z M412.6,130H452v70.4h-39.4V130z M442.7,191.1v-51.7h-20.6v51.7
	L442.7,191.1z"/>
<g>
	<rect x="59.8" y="144.1" class="st0" width="1.7" height="4.1"/>
	<rect x="59.8" y="137.2" class="st0" width="1.7" height="4.1"/>
	<rect x="95" y="144.3" class="st0" width="5.3" height="7.2"/>
	<rect x="55.3" y="137.2" class="st0" width="1.7" height="4.1"/>
	<polygon class="st0" points="32.9,143.8 36.7,143.8 37.2,138.8 33.4,138.8 	"/>
	<polygon class="st0" points="26.2,143.7 29.8,143.7 30.2,138.7 26.8,138.7 	"/>
	<polygon class="st0" points="25.1,152.5 28.8,152.5 29.4,146.7 25.8,146.7 	"/>
	<rect x="55.3" y="144.1" class="st0" width="1.7" height="4.1"/>
	<polygon class="st0" points="31.9,152.5 36,152.5 36.4,146.8 32.5,146.8 	"/>
	<rect x="95" y="135.1" class="st0" width="5.3" height="6.1"/>
	<polygon class="st0" points="58.6,130.9 56.2,130.9 54.8,134.3 57.2,134.3 	"/>
	<path class="st0" d="M0,117.7v54h214v-54H0z M172.2,129.9h13.2v-2.3h3.2v2.3h13.2v5.9h-3.2V133h-12.6l1.6,0.7v3.4l-5.9-2.2V133
		l-6.5,0v2.8h-3.2V129.9z M148.4,128.1l5.2,1.8v3.4l-5.2-1.8V128.1z M143.6,141.7h2.8l-0.7,10.1h-2.8L143.6,141.7z M72,128.1
		l1.2,3.8h-3.3l-1.2-3.8H72z M11.6,128.9l5.2,1.4v3.1l-5.2-1.4V128.9z M11.6,137.5l5.2,1.5v3.1l-5.2-1.4V137.5z M15.2,159.1h-3.1
		l2.2-11.2h3.2L15.2,159.1z M42.5,146.8h-3.2l-0.4,5.8h3v3h-3.3l-0.4,4h-3l0.3-4H21.7l1.2-8.7H20v-3h3.3l1-7.9l16,0l-0.7,7.9h2.8
		V146.8z M42.8,133.1h-19l-1.2,3.4h-3.3l3.2-8.6h3.2l-0.8,2.2h17.9V133.1z M54.3,128.1h8.4l-2.4,6.2h4.2v16.8H52.4v-12.6h-2.2
		L54.3,128.1z M53.6,159.2H51l0.7-6.8h2.6L53.6,159.2z M55.6,158.1l-0.1-5.7h2.6l0.1,5.7H55.6z M59.6,157.3l-0.3-4.8H62l0.3,4.8
		H59.6z M63.6,156.2l-0.4-3.8h2.6l0.4,3.8H63.6z M83.2,151.7h-6.6v7.7h-3v-7.7H67v-3h6.6v-4.8h-5.2v-3h5.2v-4.8h-6.3v-3h9l1.5-5h3.3
		l-1.5,5h3.3v3h-6.3v4.8h5.2v3h-5.2v4.8h6.6V151.7z M103.1,154.3H92.2v-21.9h2.4l0.9-3.3l3,0l-0.9,3.3h5.4V154.3z M109.8,140.1h3.3
		l2,6.9h-3.3L109.8,140.1z M120.9,147.6v0.2l-3.2,11.1h-3.3l3.4-11.8l0.9-12.1h-9.4l-1.3,5.4h-3.2l2.9-12.1h3.2l-0.8,3.5h12.1
		L120.9,147.6z M139.4,146.3l-1.1-3.1v16.4h-2.7v-13.7l-1.6,5.7h-3l3.2-12.4H131v-3h4.5v-4l-4.1,0.5v-3l10-1.3v2.9l-3.2,0.5v4.4h3.8
		v3h-2.3l2.7,7.2H139.4z M161,158.7h-12.6v-4.6l-2.2,4h-3.5l5.6-10.3v-12.4h3v6.8l5.2-9.6h3.5l-8.6,15.9v7.2h9.6V158.7z
		 M159.5,152.6l-1.8-11.1h3l1.8,11.1H159.5z M173.1,138.3h3.4l-2,5.5h-3.4L173.1,138.3z M174,146.4l5-3v-7.6h3.2v5.7l12-7.3v3.7
		l-9.9,6h12.1l0,3.2H179l-4.9,3V146.4z M199.2,159.7h-24.3v-8.3h3.2v5.1h7.3V149h3.2v7.5l7.4,0v-5.1h3.2V159.7z M198.8,144.5
		l-1.6-4.6h3.4l1.6,4.6H198.8z"/>
</g>
<path class="st0" d="M377.6,66.5c-5.5,13.5-32.8,5.6-53.7-12.2c-2.4-2,8.2-7.3,6-9.6c-2.9-3.1-18.5-3.2-20.9-6.7
	c-0.9-1.3-1.7-2.6-2.5-3.9c-11.9-20.1-38-36.4-57-24.4c-17.1,10.8-18.3,31.7-2,53c3.1,4,6.7,7.6,10.7,10.7
	c2.1,1.7,4.3,19.9,6.7,21.3c2.9,1.8,5.9-13.4,9.1-11.9C296,93,324.5,96.2,349.6,95c27-1.3,31-17.7,34-20.6c8.8-8.6,21,2,30.7-2.6
	c7.3-3.5,3.9-11.6-2-14.3c-2.3-1.1-6.9-0.7-8-3.4s-0.9-6.1-2-9c-0.9-3-4.1-4.6-7-3.6c-0.7,0.2-1.3,0.5-1.8,1
	C386,48.1,381.1,58,377.6,66.5z"/>
<path class="st0" d="M398.7,31.5c-6.4-13.9-0.3-29.4,4.8-25.7S398.7,31.5,398.7,31.5z"/>
<path class="st0" d="M416.3,34.1c7-17,15.2-23.6,20-16.9S416.3,34.1,416.3,34.1z"/>
<path class="st0" d="M425,49.7c10-7,23-14,27-6S425,49.7,425,49.7z"/>
</svg>
